<?xml version="1.0" encoding="UTF-8" standalone="no"?>
<!DOCTYPE svg PUBLIC "-//W3C//DTD SVG 1.1//EN"
 "http://www.w3.org/Graphics/SVG/1.1/DTD/svg11.dtd">
<!-- Generated by graphviz version 2.40.1 (20161225.0304)
 -->
<!-- Title: state transitions Pages: 1 -->
<svg width="178pt" height="856pt"
 viewBox="0.00 0.00 178.00 856.00" xmlns="http://www.w3.org/2000/svg" xmlns:xlink="http://www.w3.org/1999/xlink">
<g id="graph0" class="graph" transform="scale(1 1) rotate(0) translate(4 852)">
<title>state transitions</title>
<polygon fill="#ffffff" stroke="transparent" points="-4,4 -4,-852 174,-852 174,4 -4,4"/>
<g id="clust1" class="cluster">
<title>cluster_UtopiaStatus</title>
<path fill="none" stroke="#000000" stroke-width="2" d="M20,-8C20,-8 150,-8 150,-8 156,-8 162,-14 162,-20 162,-20 162,-828 162,-828 162,-834 156,-840 150,-840 150,-840 20,-840 20,-840 14,-840 8,-834 8,-828 8,-828 8,-20 8,-20 8,-14 14,-8 20,-8"/>
<text text-anchor="start" x="50.6566" y="-821.2" font-family="Helvetica,sans-Serif" font-size="12.00" fill="#000000">UtopiaStatus</text>
</g>
<!-- UtopiaStatus -->
<!-- reset -->
<g id="node2" class="node">
<title>reset</title>
<polygon fill="transparent" stroke="transparent" stroke-width="2" points="101,-802 45,-802 45,-766 101,-766 101,-802"/>
<text text-anchor="start" x="59.6644" y="-780.2" font-family="Helvetica,sans-Serif" font-size="12.00" fill="#000000">reset</text>
<path fill="none" stroke="#000000" stroke-width="2" d="M57.3333,-767C57.3333,-767 88.6667,-767 88.6667,-767 94.3333,-767 100,-772.6667 100,-778.3333 100,-778.3333 100,-789.6667 100,-789.6667 100,-795.3333 94.3333,-801 88.6667,-801 88.6667,-801 57.3333,-801 57.3333,-801 51.6667,-801 46,-795.3333 46,-789.6667 46,-789.6667 46,-778.3333 46,-778.3333 46,-772.6667 51.6667,-767 57.3333,-767"/>
</g>
<!-- ready -->
<g id="node3" class="node">
<title>ready</title>
<polygon fill="transparent" stroke="transparent" stroke-width="2" points="89,-720 33,-720 33,-684 89,-684 89,-720"/>
<text text-anchor="start" x="45.9964" y="-698.2" font-family="Helvetica,sans-Serif" font-size="12.00" fill="#000000">ready</text>
<path fill="none" stroke="#000000" stroke-width="2" d="M45.3333,-685C45.3333,-685 76.6667,-685 76.6667,-685 82.3333,-685 88,-690.6667 88,-696.3333 88,-696.3333 88,-707.6667 88,-707.6667 88,-713.3333 82.3333,-719 76.6667,-719 76.6667,-719 45.3333,-719 45.3333,-719 39.6667,-719 34,-713.3333 34,-707.6667 34,-707.6667 34,-696.3333 34,-696.3333 34,-690.6667 39.6667,-685 45.3333,-685"/>
</g>
<!-- reset&#45;&gt;ready -->
<g id="edge1" class="edge">
<title>reset&#45;&gt;ready</title>
<path fill="none" stroke="#000000" d="M70.3368,-765.8015C68.8143,-755.3976 66.8714,-742.1215 65.1527,-730.3768"/>
<polygon fill="#000000" stroke="#000000" points="68.5669,-729.5354 63.6557,-720.1476 61.6407,-730.549 68.5669,-729.5354"/>
<text text-anchor="start" x="67" y="-740" font-family="Helvetica,sans-Serif" font-size="10.00" fill="#000000">~fifo_empty &#160;&#160;</text>
</g>
<!-- soc_frm -->
<g id="node4" class="node">
<title>soc_frm</title>
<polygon fill="transparent" stroke="transparent" stroke-width="2" points="89,-638 25,-638 25,-602 89,-602 89,-638"/>
<text text-anchor="start" x="35.667" y="-616.2" font-family="Helvetica,sans-Serif" font-size="12.00" fill="#000000">soc_frm</text>
<path fill="none" stroke="#000000" stroke-width="2" d="M37.3333,-603C37.3333,-603 76.6667,-603 76.6667,-603 82.3333,-603 88,-608.6667 88,-614.3333 88,-614.3333 88,-625.6667 88,-625.6667 88,-631.3333 82.3333,-637 76.6667,-637 76.6667,-637 37.3333,-637 37.3333,-637 31.6667,-637 26,-631.3333 26,-625.6667 26,-625.6667 26,-614.3333 26,-614.3333 26,-608.6667 31.6667,-603 37.3333,-603"/>
</g>
<!-- ready&#45;&gt;soc_frm -->
<g id="edge2" class="edge">
<title>ready&#45;&gt;soc_frm</title>
<path fill="none" stroke="#000000" d="M60.1123,-683.8015C59.6048,-673.3976 58.9571,-660.1215 58.3842,-648.3768"/>
<polygon fill="#000000" stroke="#000000" points="61.8684,-647.9651 57.8852,-638.1476 54.8767,-648.3063 61.8684,-647.9651"/>
<text text-anchor="start" x="59" y="-658" font-family="Helvetica,sans-Serif" font-size="10.00" fill="#000000">clav &#160;&#160;</text>
</g>
<!-- vpi_vci -->
<g id="node5" class="node">
<title>vpi_vci</title>
<polygon fill="transparent" stroke="transparent" stroke-width="2" points="84,-556 26,-556 26,-520 84,-520 84,-556"/>
<text text-anchor="start" x="36.6664" y="-534.2" font-family="Helvetica,sans-Serif" font-size="12.00" fill="#000000">vpi_vci</text>
<path fill="none" stroke="#000000" stroke-width="2" d="M38.3333,-521C38.3333,-521 71.6667,-521 71.6667,-521 77.3333,-521 83,-526.6667 83,-532.3333 83,-532.3333 83,-543.6667 83,-543.6667 83,-549.3333 77.3333,-555 71.6667,-555 71.6667,-555 38.3333,-555 38.3333,-555 32.6667,-555 27,-549.3333 27,-543.6667 27,-543.6667 27,-532.3333 27,-532.3333 27,-526.6667 32.6667,-521 38.3333,-521"/>
</g>
<!-- soc_frm&#45;&gt;vpi_vci -->
<g id="edge3" class="edge">
<title>soc_frm&#45;&gt;vpi_vci</title>
<path fill="none" stroke="#000000" d="M56.5561,-601.8015C56.3024,-591.3976 55.9786,-578.1215 55.6921,-566.3768"/>
<polygon fill="#000000" stroke="#000000" points="59.1855,-566.0592 55.4426,-556.1476 52.1876,-566.23 59.1855,-566.0592"/>
<text text-anchor="start" x="56" y="-576" font-family="Helvetica,sans-Serif" font-size="10.00" fill="#000000">clav &#160;&#160;</text>
</g>
<!-- vci -->
<g id="node6" class="node">
<title>vci</title>
<polygon fill="transparent" stroke="transparent" stroke-width="2" points="82,-474 26,-474 26,-438 82,-438 82,-474"/>
<text text-anchor="start" x="46.6686" y="-452.2" font-family="Helvetica,sans-Serif" font-size="12.00" fill="#000000">vci</text>
<path fill="none" stroke="#000000" stroke-width="2" d="M38.3333,-439C38.3333,-439 69.6667,-439 69.6667,-439 75.3333,-439 81,-444.6667 81,-450.3333 81,-450.3333 81,-461.6667 81,-461.6667 81,-467.3333 75.3333,-473 69.6667,-473 69.6667,-473 38.3333,-473 38.3333,-473 32.6667,-473 27,-467.3333 27,-461.6667 27,-461.6667 27,-450.3333 27,-450.3333 27,-444.6667 32.6667,-439 38.3333,-439"/>
</g>
<!-- vpi_vci&#45;&gt;vci -->
<g id="edge4" class="edge">
<title>vpi_vci&#45;&gt;vci</title>
<path fill="none" stroke="#000000" d="M54.7781,-519.8015C54.6512,-509.3976 54.4893,-496.1215 54.3461,-484.3768"/>
<polygon fill="#000000" stroke="#000000" points="57.8431,-484.1041 54.2213,-474.1476 50.8436,-484.1896 57.8431,-484.1041"/>
<text text-anchor="start" x="54" y="-494" font-family="Helvetica,sans-Serif" font-size="10.00" fill="#000000">clav &#160;&#160;</text>
</g>
<!-- vci_clp_pt -->
<g id="node7" class="node">
<title>vci_clp_pt</title>
<polygon fill="transparent" stroke="transparent" stroke-width="2" points="91.5,-392 16.5,-392 16.5,-356 91.5,-356 91.5,-392"/>
<text text-anchor="start" x="27.8282" y="-370.2" font-family="Helvetica,sans-Serif" font-size="12.00" fill="#000000">vci_clp_pt</text>
<path fill="none" stroke="#000000" stroke-width="2" d="M28.8333,-357C28.8333,-357 79.1667,-357 79.1667,-357 84.8333,-357 90.5,-362.6667 90.5,-368.3333 90.5,-368.3333 90.5,-379.6667 90.5,-379.6667 90.5,-385.3333 84.8333,-391 79.1667,-391 79.1667,-391 28.8333,-391 28.8333,-391 23.1667,-391 17.5,-385.3333 17.5,-379.6667 17.5,-379.6667 17.5,-368.3333 17.5,-368.3333 17.5,-362.6667 23.1667,-357 28.8333,-357"/>
</g>
<!-- vci&#45;&gt;vci_clp_pt -->
<g id="edge5" class="edge">
<title>vci&#45;&gt;vci_clp_pt</title>
<path fill="none" stroke="#000000" d="M54,-437.8015C54,-427.3976 54,-414.1215 54,-402.3768"/>
<polygon fill="#000000" stroke="#000000" points="57.5001,-402.1476 54,-392.1476 50.5001,-402.1476 57.5001,-402.1476"/>
<text text-anchor="start" x="54" y="-412" font-family="Helvetica,sans-Serif" font-size="10.00" fill="#000000">clav &#160;&#160;</text>
</g>
<!-- hec -->
<g id="node8" class="node">
<title>hec</title>
<polygon fill="transparent" stroke="transparent" stroke-width="2" points="81,-310 25,-310 25,-274 81,-274 81,-310"/>
<text text-anchor="start" x="43.3292" y="-288.2" font-family="Helvetica,sans-Serif" font-size="12.00" fill="#000000">hec</text>
<path fill="none" stroke="#000000" stroke-width="2" d="M37.3333,-275C37.3333,-275 68.6667,-275 68.6667,-275 74.3333,-275 80,-280.6667 80,-286.3333 80,-286.3333 80,-297.6667 80,-297.6667 80,-303.3333 74.3333,-309 68.6667,-309 68.6667,-309 37.3333,-309 37.3333,-309 31.6667,-309 26,-303.3333 26,-297.6667 26,-297.6667 26,-286.3333 26,-286.3333 26,-280.6667 31.6667,-275 37.3333,-275"/>
</g>
<!-- vci_clp_pt&#45;&gt;hec -->
<g id="edge6" class="edge">
<title>vci_clp_pt&#45;&gt;hec</title>
<path fill="none" stroke="#000000" d="M53.7781,-355.8015C53.6512,-345.3976 53.4893,-332.1215 53.3461,-320.3768"/>
<polygon fill="#000000" stroke="#000000" points="56.8431,-320.1041 53.2213,-310.1476 49.8436,-320.1896 56.8431,-320.1041"/>
<text text-anchor="start" x="53" y="-330" font-family="Helvetica,sans-Serif" font-size="10.00" fill="#000000">clav &#160;&#160;</text>
</g>
<!-- payload -->
<g id="node9" class="node">
<title>payload</title>
<polygon fill="transparent" stroke="transparent" stroke-width="2" points="81,-228 17,-228 17,-192 81,-192 81,-228"/>
<text text-anchor="start" x="27.9916" y="-206.2" font-family="Helvetica,sans-Serif" font-size="12.00" fill="#000000">payload</text>
<path fill="none" stroke="#000000" stroke-width="2" d="M29.3333,-193C29.3333,-193 68.6667,-193 68.6667,-193 74.3333,-193 80,-198.6667 80,-204.3333 80,-204.3333 80,-215.6667 80,-215.6667 80,-221.3333 74.3333,-227 68.6667,-227 68.6667,-227 29.3333,-227 29.3333,-227 23.6667,-227 18,-221.3333 18,-215.6667 18,-215.6667 18,-204.3333 18,-204.3333 18,-198.6667 23.6667,-193 29.3333,-193"/>
</g>
<!-- hec&#45;&gt;payload -->
<g id="edge7" class="edge">
<title>hec&#45;&gt;payload</title>
<path fill="none" stroke="#000000" d="M52.1123,-273.8015C51.6048,-263.3976 50.9571,-250.1215 50.3842,-238.3768"/>
<polygon fill="#000000" stroke="#000000" points="53.8684,-237.9651 49.8852,-228.1476 46.8767,-238.3063 53.8684,-237.9651"/>
<text text-anchor="start" x="51" y="-248" font-family="Helvetica,sans-Serif" font-size="10.00" fill="#000000">clav &#160;&#160;</text>
</g>
<!-- ack -->
<g id="node10" class="node">
<title>ack</title>
<polygon fill="transparent" stroke="transparent" stroke-width="2" points="101,-134 45,-134 45,-98 101,-98 101,-134"/>
<text text-anchor="start" x="63.6646" y="-112.2" font-family="Helvetica,sans-Serif" font-size="12.00" fill="#000000">ack</text>
<path fill="none" stroke="#000000" stroke-width="2" d="M57.3333,-99C57.3333,-99 88.6667,-99 88.6667,-99 94.3333,-99 100,-104.6667 100,-110.3333 100,-110.3333 100,-121.6667 100,-121.6667 100,-127.3333 94.3333,-133 88.6667,-133 88.6667,-133 57.3333,-133 57.3333,-133 51.6667,-133 46,-127.3333 46,-121.6667 46,-121.6667 46,-110.3333 46,-110.3333 46,-104.6667 51.6667,-99 57.3333,-99"/>
</g>
<!-- payload&#45;&gt;ack -->
<g id="edge8" class="edge">
<title>payload&#45;&gt;ack</title>
<path fill="none" stroke="#000000" d="M49.2446,-191.8557C49.8132,-180.0144 51.346,-164.3363 55.287,-151 56.0566,-148.3958 57.0162,-145.7536 58.0879,-143.1486"/>
<polygon fill="#000000" stroke="#000000" points="61.2934,-144.5555 62.3215,-134.0106 54.942,-141.6128 61.2934,-144.5555"/>
<text text-anchor="start" x="55" y="-166" font-family="Helvetica,sans-Serif" font-size="10.00" fill="#000000">PayloadIndex==47 &#160;&#160;</text>
<text text-anchor="start" x="55" y="-154" font-family="Helvetica,sans-Serif" font-size="10.00" fill="#000000">clav &#160;&#160;</text>
</g>
<!-- done -->
<g id="node11" class="node">
<title>done</title>
<polygon fill="transparent" stroke="transparent" stroke-width="2" points="128,-52 72,-52 72,-16 128,-16 128,-52"/>
<text text-anchor="start" x="86.6584" y="-30.2" font-family="Helvetica,sans-Serif" font-size="12.00" fill="#000000">done</text>
<path fill="none" stroke="#000000" stroke-width="2" d="M84.3333,-17C84.3333,-17 115.6667,-17 115.6667,-17 121.3333,-17 127,-22.6667 127,-28.3333 127,-28.3333 127,-39.6667 127,-39.6667 127,-45.3333 121.3333,-51 115.6667,-51 115.6667,-51 84.3333,-51 84.3333,-51 78.6667,-51 73,-45.3333 73,-39.6667 73,-39.6667 73,-28.3333 73,-28.3333 73,-22.6667 78.6667,-17 84.3333,-17"/>
</g>
<!-- ack&#45;&gt;done -->
<g id="edge9" class="edge">
<title>ack&#45;&gt;done</title>
<path fill="none" stroke="#000000" d="M78.9922,-97.8015C82.4878,-87.1853 86.9681,-73.5784 90.8926,-61.6596"/>
<polygon fill="#000000" stroke="#000000" points="94.2214,-62.7406 94.0246,-52.1476 87.5726,-60.5513 94.2214,-62.7406"/>
<text text-anchor="middle" x="89.3895" y="-72" font-family="Helvetica,sans-Serif" font-size="10.00" fill="#000000"> </text>
</g>
<!-- done&#45;&gt;reset -->
<g id="edge10" class="edge">
<title>done&#45;&gt;reset</title>
<path fill="none" stroke="#000000" d="M128.0519,-44.1141C140.7649,-50.6673 153,-60.6911 153,-75 153,-142.5 153,-142.5 153,-142.5 153,-172.5033 152,-179.9967 152,-210 152,-347.5 152,-347.5 152,-347.5 152,-377.5033 151,-384.9967 151,-415 151,-743 151,-743 151,-743 151,-753.0372 130.507,-763.5568 110.5292,-771.4272"/>
<polygon fill="#000000" stroke="#000000" points="109.2852,-768.1556 101.1598,-774.9547 111.7517,-774.7067 109.2852,-768.1556"/>
<text text-anchor="middle" x="152.3895" y="-412" font-family="Helvetica,sans-Serif" font-size="10.00" fill="#000000"> </text>
</g>
</g>
</svg>
